<svg xmlns="http://www.w3.org/2000/svg" viewBox="0 0 800 500" width="800" height="500" role="img">
  <defs>
    <linearGradient id="bg1" x1="0" y1="0" x2="1" y2="1"><stop offset="0" stop-color="#fafbfc"></stop><stop offset="1" stop-color="#f1f3f7"></stop></linearGradient>
    <pattern id="g1" width="24" height="24" patternUnits="userSpaceOnUse"><path d="M24 0H0V24" fill="none" stroke="#e6eaf0" stroke-width=".5"></path></pattern>
  </defs>
  <rect width="800" height="500" fill="url(#bg1)"></rect>
  <rect width="800" height="500" fill="url(#g1)" opacity=".6"></rect>
  
  <text x="32" y="48" font-family="Inter, sans-serif" font-size="11" letter-spacing="1.6" fill="#5b6573">EXERCICE 2026 · ALLOCATIONS</text>
  <text x="32" y="80" font-family="Inter, sans-serif" font-weight="700" font-size="26" fill="#0E2A47">Enveloppes budgétaires</text>
  <rect x="640" y="56" width="128" height="32" rx="6" fill="rgba(184,134,74,0.10)" stroke="#cfd9e6"></rect>
  <text x="656" y="76" font-family="Inter, sans-serif" font-size="12" fill="#0E2A47">＋ Nouvelle</text>

  
  <line x1="32" y1="112" x2="768" y2="112" stroke="#e6eaf0"></line>
  <g font-family="Inter, sans-serif" font-size="10" letter-spacing="1.5" fill="#5b6573">
    <text x="32" y="134">DÉPARTEMENT</text><text x="320" y="134">ALLOUÉ</text>
    <text x="460" y="134">RESTANT</text><text x="620" y="134">PROGRESSION</text>
  </g>

  
  <g font-family="Inter, sans-serif" font-size="13">
    <g transform="translate(0,0)">
      <rect x="32" y="148" width="736" height="48" rx="8" fill="#ffffff" stroke="#e6eaf0"></rect>
      <text x="48" y="178" fill="#0E2A47">Coopération internationale</text>
      <text x="320" y="178" fill="#0E2A47">14 200 000 FCFA</text>
      <text x="460" y="178" fill="#B8864A">6 674 000 FCFA</text>
      <rect x="620" y="170" width="130" height="6" rx="3" fill="rgba(184,134,74,0.10)"></rect>
      <rect x="620" y="170" width="68" height="6" rx="3" fill="#B8864A"></rect>
    </g>
    <g transform="translate(0,60)">
      <rect x="32" y="148" width="736" height="48" rx="8" fill="#ffffff" stroke="#e6eaf0"></rect>
      <text x="48" y="178" fill="#0E2A47">Direction générale</text>
      <text x="320" y="178" fill="#0E2A47">8 400 000 FCFA</text>
      <text x="460" y="178" fill="#B8864A">4 284 000 FCFA</text>
      <rect x="620" y="170" width="130" height="6" rx="3" fill="rgba(184,134,74,0.10)"></rect>
      <rect x="620" y="170" width="62" height="6" rx="3" fill="#B8864A"></rect>
    </g>
    <g transform="translate(0,120)">
      <rect x="32" y="148" width="736" height="48" rx="8" fill="#ffffff" stroke="#e6eaf0"></rect>
      <text x="48" y="178" fill="#0E2A47">Systèmes d&#39;information</text>
      <text x="320" y="178" fill="#0E2A47">5 900 000 FCFA</text>
      <text x="460" y="178" fill="#B8864A">2 478 000 FCFA</text>
      <rect x="620" y="170" width="130" height="6" rx="3" fill="rgba(184,134,74,0.10)"></rect>
      <rect x="620" y="170" width="86" height="6" rx="3" fill="#B8864A"></rect>
    </g>
    <g transform="translate(0,180)">
      <rect x="32" y="148" width="736" height="48" rx="8" fill="#ffffff" stroke="#e6eaf0"></rect>
      <text x="48" y="178" fill="#0E2A47">Communication</text>
      <text x="320" y="178" fill="#0E2A47">2 100 000 FCFA</text>
      <text x="460" y="178" fill="#b45309">312 000 FCFA</text>
      <rect x="620" y="170" width="130" height="6" rx="3" fill="rgba(184,134,74,0.10)"></rect>
      <rect x="620" y="170" width="111" height="6" rx="3" fill="#b45309"></rect>
    </g>
    <g transform="translate(0,240)">
      <rect x="32" y="148" width="736" height="48" rx="8" fill="#ffffff" stroke="#e6eaf0"></rect>
      <text x="48" y="178" fill="#0E2A47">Ressources humaines</text>
      <text x="320" y="178" fill="#0E2A47">4 700 000 FCFA</text>
      <text x="460" y="178" fill="#B8864A">2 894 000 FCFA</text>
      <rect x="620" y="170" width="130" height="6" rx="3" fill="rgba(184,134,74,0.10)"></rect>
      <rect x="620" y="170" width="49" height="6" rx="3" fill="#B8864A"></rect>
    </g>
  </g>
</svg>
