<svg xmlns="http://www.w3.org/2000/svg" viewBox="0 0 800 500" width="800" height="500" role="img">
  <defs>
    <linearGradient id="bgr" x1="0" y1="0" x2="1" y2="1"><stop offset="0" stop-color="#fafbfc"></stop><stop offset="1" stop-color="#f1f3f7"></stop></linearGradient>
    <pattern id="gr" width="24" height="24" patternUnits="userSpaceOnUse"><path d="M24 0H0V24" fill="none" stroke="#e6eaf0" stroke-width=".5"></path></pattern>
    <linearGradient id="ar" x1="0" y1="0" x2="0" y2="1"><stop offset="0" stop-color="#B8864A" stop-opacity=".25"></stop><stop offset="1" stop-color="#B8864A" stop-opacity="0"></stop></linearGradient>
  </defs>
  <rect width="800" height="500" fill="url(#bgr)"></rect>
  <rect width="800" height="500" fill="url(#gr)" opacity=".6"></rect>
  <text x="32" y="48" font-family="Inter, sans-serif" font-size="11" letter-spacing="1.6" fill="#5b6573">RAPPORT EXÉCUTIF · TRIM. 2 · 2026</text>
  <text x="32" y="80" font-family="Inter, sans-serif" font-weight="700" font-size="24" fill="#0E2A47">Tableau de bord direction</text>

  
  <rect x="32" y="108" width="464" height="232" rx="10" fill="#ffffff" stroke="#e6eaf0"></rect>
  <text x="48" y="134" font-family="Inter, sans-serif" font-size="12" font-weight="600" fill="#0E2A47">Taux d&#39;utilisation des enveloppes</text>
  <g stroke="#e6eaf0" stroke-dasharray="2 4">
    <line x1="48" y1="170" x2="480" y2="170"></line>
    <line x1="48" y1="220" x2="480" y2="220"></line>
    <line x1="48" y1="270" x2="480" y2="270"></line>
  </g>
  <path d="M48 290 L96 268 L144 280 L192 240 L240 252 L288 220 L336 196 L384 184 L432 166 L480 152 L480 320 L48 320 Z" fill="url(#ar)"></path>
  <path d="M48 290 L96 268 L144 280 L192 240 L240 252 L288 220 L336 196 L384 184 L432 166 L480 152" fill="none" stroke="#B8864A" stroke-width="2"></path>
  <g fill="#B8864A"><circle cx="192" cy="240" r="3"></circle><circle cx="336" cy="196" r="3"></circle><circle cx="480" cy="152" r="3.5"></circle></g>
  <text x="48" y="332" font-family="Inter, sans-serif" font-size="9" letter-spacing="1.4" fill="#5b6573">JANV   FÉV    MARS   AVR    MAI    JUIN   JUIL   AOÛT   SEPT   OCT</text>

  
  <rect x="512" y="108" width="256" height="232" rx="10" fill="#ffffff" stroke="#e6eaf0"></rect>
  <text x="528" y="134" font-family="Inter, sans-serif" font-size="12" font-weight="600" fill="#0E2A47">Répartition par axe</text>
  <g transform="translate(640,232)">
    <circle r="64" fill="none" stroke="rgba(184,134,74,0.10)" stroke-width="14"></circle>
    <circle r="64" fill="none" stroke="#B8864A" stroke-width="14" stroke-dasharray="200 402" transform="rotate(-90)"></circle>
    <circle r="64" fill="none" stroke="#15803d" stroke-width="14" stroke-dasharray="80 402" stroke-dashoffset="-200" transform="rotate(-90)"></circle>
    <circle r="64" fill="none" stroke="#b45309" stroke-width="14" stroke-dasharray="50 402" stroke-dashoffset="-280" transform="rotate(-90)"></circle>
    <text text-anchor="middle" y="-4" font-family="Inter, sans-serif" font-size="22" font-weight="700" fill="#0E2A47">52%</text>
    <text text-anchor="middle" y="14" font-family="Inter, sans-serif" font-size="10" letter-spacing="1.4" fill="#5b6573">UTILISÉ</text>
  </g>

  
  <g font-family="Inter, sans-serif">
    <g><rect x="32" y="356" width="178" height="116" rx="10" fill="#ffffff" stroke="#e6eaf0"></rect>
      <text x="48" y="380" font-size="10" letter-spacing="1.5" fill="#5b6573">CONSOMMÉ</text>
      <text x="48" y="416" font-weight="700" font-size="26" fill="#0E2A47">21,9M FCFA</text>
      <text x="48" y="448" font-size="11" fill="#15803d">▲ +6.2% vs N-1</text>
    </g>
    <g><rect x="222" y="356" width="178" height="116" rx="10" fill="#ffffff" stroke="#e6eaf0"></rect>
      <text x="238" y="380" font-size="10" letter-spacing="1.5" fill="#5b6573">PROJECTION</text>
      <text x="238" y="416" font-weight="700" font-size="26" fill="#0E2A47">47,2M FCFA</text>
      <text x="238" y="448" font-size="11" fill="#B8864A">98% de l&#39;enveloppe</text>
    </g>
    <g><rect x="412" y="356" width="178" height="116" rx="10" fill="#ffffff" stroke="#e6eaf0"></rect>
      <text x="428" y="380" font-size="10" letter-spacing="1.5" fill="#5b6573">ÉCART</text>
      <text x="428" y="416" font-weight="700" font-size="26" fill="#0E2A47">−1,1M</text>
      <text x="428" y="448" font-size="11" fill="#15803d">sous le plafond</text>
    </g>
    <g><rect x="602" y="356" width="166" height="116" rx="10" fill="#ffffff" stroke="#e6eaf0"></rect>
      <text x="618" y="380" font-size="10" letter-spacing="1.5" fill="#5b6573">EXPORT</text>
      <text x="618" y="416" font-weight="700" font-size="20" fill="#0E2A47">PDF · XLSX</text>
      <text x="618" y="448" font-size="11" fill="#B8864A">→ Générer</text>
    </g>
  </g>
</svg>
